<svg width="64" height="64" viewBox="0 0 64 64" fill="none" xmlns="http://www.w3.org/2000/svg">
<path d="M8.24084 56.5066C6.42485 56.5066 5 55.0817 5 53.2658C5 52.3717 5.3632 51.5336 5.97784 50.9189L25.6184 31.7254L5.97784 12.5877C5.3632 11.9451 5 11.1069 5 10.2408C5 8.42485 6.42485 7 8.24084 7C9.1628 7 9.91713 7.33526 10.5318 7.9499L32.2957 29.2389C33.05 29.9373 33.4132 30.7755 33.4132 31.7533C33.4132 32.7032 33.05 33.5134 32.2957 34.2677L10.5318 55.5567C9.91713 56.1713 9.13486 56.5066 8.24084 56.5066ZM33.2176 56.5066C31.4016 56.5066 29.9489 55.0817 29.9489 53.2658C29.9489 52.3717 30.34 51.5336 30.9546 50.9189L50.5952 31.7254L30.9546 12.5877C30.34 11.9451 29.9489 11.1069 29.9489 10.2408C29.9489 8.42485 31.4016 7 33.2176 7C34.1117 7 34.866 7.33526 35.4806 7.9499L57.2725 29.2389C57.9989 29.9373 58.39 30.7755 58.39 31.7533C58.39 32.7032 58.0268 33.5134 57.2725 34.2677L35.4806 55.5567C34.866 56.1713 34.1117 56.5066 33.2176 56.5066Z" fill="#E85533"/>
</svg>
